<?xml version="1.0" encoding="UTF-8"?>
<svg version="1.1" xmlns="http://www.w3.org/2000/svg" width="1024" height="1024">
<path d="M0 0 C36.93076131 4.17435467 67.21781623 15.41295054 94 42 C94.66 42.99 95.32 43.98 96 45 C99.37308761 43.87563746 100.15123097 42.92657267 102.375 40.25 C121.10957292 17.83694929 152.18017426 3.02418744 181.125 0.375 C202.38086358 -1.22809586 222.07979183 1.42868053 242 9 C243.09054687 9.39832031 244.18109375 9.79664063 245.3046875 10.20703125 C251.83913755 12.67827511 251.83913755 12.67827511 253 15 C254.65834292 15.68711061 256.32673444 16.3500734 258 17 C266.08759748 21.64424158 274.23609958 26.96724955 280.625 33.8125 C285.03663017 37.52117811 291.3848772 37.28066124 296.87988281 37.79394531 C300.51172022 38.14692444 304.12944714 38.61024179 307.75 39.0625 C308.76876221 39.18177856 308.76876221 39.18177856 309.80810547 39.3034668 C314.2418145 39.83674815 318.07375497 41.01368155 322.23828125 42.55859375 C323.05876953 42.86216797 323.87925781 43.16574219 324.72460938 43.47851562 C326.43829325 44.11354867 328.15183694 44.74896015 329.86523438 45.38476562 C333.39150111 46.68885019 336.91331633 47.97110544 340.48046875 49.16015625 C352.13853365 53.04617788 363.88185903 61.99147407 373 70 C373.80308594 70.68320312 374.60617187 71.36640625 375.43359375 72.0703125 C401.9756344 95.17555225 419.09600021 127.1722249 421.65820312 162.51147461 C423.6219242 196.56898515 414.37064339 229.27740418 393 256 C392.24847656 256.97839844 391.49695313 257.95679688 390.72265625 258.96484375 C386.6711034 264.18863612 386.6711034 264.18863612 385 266 C384.34 266 383.68 266 383 266 C385.06499029 270.48968857 387.50097359 274.0567455 390.625 277.875 C399.20922126 288.74760891 411 305.61882529 411 320 C411.66 320.33 412.32 320.66 413 321 C413.59765625 323.6953125 413.59765625 323.6953125 414.0625 327.125 C414.29646484 328.79949219 414.29646484 328.79949219 414.53515625 330.5078125 C414.68855469 331.66023438 414.84195313 332.81265625 415 334 C415.26876953 335.53140625 415.26876953 335.53140625 415.54296875 337.09375 C419.65763777 372.26186132 411.03295008 406.78444448 389.50488281 434.95654297 C370.75432358 458.54457525 346.22089223 473.98993747 317 481 C316.65388672 482.4540625 316.65388672 482.4540625 316.30078125 483.9375 C311.68878803 503.0199524 305.78329086 520.58074253 295.890625 537.62890625 C293.94589838 540.84856685 293.94589838 540.84856685 293 544 C291.35492891 545.68798598 289.68449044 547.35134979 288 549 C286.74575669 550.49399598 285.49208578 551.98867607 284.26147461 553.50219727 C263.050096 579.50109707 232.47244781 596.85341128 198.9375 600.4375 C165.29395824 603.34578259 133.31909373 594.15069164 107 573 C106.06414062 572.25234375 105.12828125 571.5046875 104.1640625 570.734375 C103.44992187 570.16203125 102.73578125 569.5896875 102 569 C98.4957114 570.56382973 95.75139426 572.68569756 92.75 575.0625 C65.48459958 596.03786387 31.90160234 604.1207066 -2.05078125 599.78515625 C-16.18886447 597.69382269 -29.19127475 593.24337865 -42 587 C-42.98355469 586.52820313 -43.96710938 586.05640625 -44.98046875 585.5703125 C-56.59990226 579.6348443 -66.54430618 570.88262147 -76 562 C-76.88365234 561.21302734 -76.88365234 561.21302734 -77.78515625 560.41015625 C-94.39061817 544.98238667 -104.19748825 523.20173712 -111 502 C-111.66 502 -112.32 502 -113 502 C-114.125 496.375 -114.125 496.375 -113 493 C-113.09406754 490.70546505 -113.09406754 490.70546505 -113.4375 488.3125 C-113.59025391 487.10013672 -113.59025391 487.10013672 -113.74609375 485.86328125 C-113.82988281 485.24839844 -113.91367187 484.63351562 -114 484 C-114.99257813 483.78085937 -115.98515625 483.56171875 -117.0078125 483.3359375 C-129.47660464 480.46898034 -140.63028719 475.90350473 -152 470 C-152.66 469.67 -153.32 469.34 -154 469 C-155.67500667 467.67715904 -157.33993174 466.34153976 -159 465 C-160.04414063 464.20464844 -161.08828125 463.40929687 -162.1640625 462.58984375 C-175.38388037 452.50263902 -187.59980997 441.20683297 -195.89453125 426.59375 C-197.07351703 424.68554648 -197.07351703 424.68554648 -200 423 C-200 422.01 -200 421.02 -200 420 C-201.18789065 417.45030915 -202.41883971 414.94627642 -203.6875 412.4375 C-208.47033537 402.66517007 -211.93066143 392.33615996 -213.50390625 381.54296875 C-213.66761719 380.70378906 -213.83132812 379.86460937 -214 379 C-214.66 378.67 -215.32 378.34 -216 378 C-215.67 377.34 -215.34 376.68 -215 376 C-214.96193973 373.88310617 -214.98778927 371.76495428 -215.04296875 369.6484375 C-215.7236096 333.11996573 -209.462458 300.55344927 -185 272 C-185.825 271.05125 -186.65 270.1025 -187.5 269.125 C-190.8751815 265.2126756 -194.02680524 261.14054227 -197.16796875 257.0390625 C-198.91882333 254.75242429 -198.91882333 254.75242429 -202 254 C-202 253.01 -202 252.02 -202 251 C-202.94726954 249.30280873 -203.94228261 247.63064764 -205 246 C-205.66 246.33 -206.32 246.66 -207 247 C-207 246.34 -207 245.68 -207 245 C-207.66 244.67 -208.32 244.34 -209 244 C-208.67 243.01 -208.34 242.02 -208 241 C-208.61138656 239.12380178 -208.61138656 239.12380178 -209.6953125 237.18359375 C-210.07937256 236.42828369 -210.46343262 235.67297363 -210.85913086 234.89477539 C-211.27686768 234.08387451 -211.69460449 233.27297363 -212.125 232.4375 C-227.47784498 201.3778111 -228.81736534 164.716903 -218 132 C-212.28913202 115.81813675 -204.18205662 102.02863478 -193 89 C-192.22527344 88.06800781 -191.45054687 87.13601563 -190.65234375 86.17578125 C-175.50220512 68.69485206 -155.63627768 56.71709685 -134 49 C-132.94554687 48.62101562 -131.89109375 48.24203125 -130.8046875 47.8515625 C-118.01607859 43.58869286 -104.4863382 41.28601739 -91 42 C-91 41.34 -91 40.68 -91 40 C-89.34382245 38.9827224 -87.67414402 37.98743079 -86 37 C-84.95034143 36.1759943 -83.91735543 35.33047777 -82.8984375 34.46875 C-61.97420126 16.78414415 -34.17668921 1.647663 -6.0625 1.9375 C-4.34740234 1.95103516 -4.34740234 1.95103516 -2.59765625 1.96484375 C-1.74042969 1.97644531 -0.88320313 1.98804688 0 2 C0 1.34 0 0.68 0 0 Z M-112 497 C-111 500 -111 500 -111 500 Z " fill="#E3340B" transform="translate(411,200)"/>
<path d="M0 0 C36.93076131 4.17435467 67.21781623 15.41295054 94 42 C94.66 42.99 95.32 43.98 96 45 C99.37308761 43.87563746 100.15123097 42.92657267 102.375 40.25 C121.10957292 17.83694929 152.18017426 3.02418744 181.125 0.375 C202.38086358 -1.22809586 222.07979183 1.42868053 242 9 C243.09054687 9.39832031 244.18109375 9.79664063 245.3046875 10.20703125 C251.83913755 12.67827511 251.83913755 12.67827511 253 15 C254.65834292 15.68711061 256.32673444 16.3500734 258 17 C266.3720425 21.80758198 273.97918606 27.56084987 281.3125 33.8125 C283.55685128 35.63929755 285.42100406 36.78473752 288 38 C286.74062622 38.09704224 286.74062622 38.09704224 285.45581055 38.19604492 C249.31218092 41.07636016 213.2602875 49.74563513 187.55859375 77.53125 C186 79 186 79 184 79 C183.79375 79.53625 183.5875 80.0725 183.375 80.625 C181.76167024 83.41166049 179.79381341 85.26969167 177.4375 87.4375 C175.89166283 88.937874 175.89166283 88.937874 175.17431641 90.99511719 C173.66282988 93.57564263 172.61060472 93.82217701 169.7734375 94.640625 C168.48481812 95.03290283 168.48481812 95.03290283 167.17016602 95.43310547 C166.24776123 95.70268066 165.32535645 95.97225586 164.375 96.25 C138.82196129 104.26075254 118.54049086 118.87708535 100 138 C96.31806603 134.93172169 92.84350227 131.86791556 89.5625 128.375 C79.02970077 117.76102313 66.22236337 109.80302401 53 103 C52.0821875 102.52046875 51.164375 102.0409375 50.21875 101.546875 C36.32970779 94.77382355 21.2065159 91.21964509 6 89 C6.99 88.34 7.98 87.68 9 87 C-11.03904294 61.54499951 -44.76695941 48.16440541 -76 44 C-79.99619154 43.5985561 -83.99287968 43.26998328 -88 43 C-86.73270447 37.39242435 -83.97660327 34.69444694 -79.5625 31.3125 C-78.90362793 30.79921143 -78.24475586 30.28592285 -77.56591797 29.75708008 C-57.56969901 14.59610765 -31.66455079 1.67356133 -6.0625 1.9375 C-4.34740234 1.95103516 -4.34740234 1.95103516 -2.59765625 1.96484375 C-1.74042969 1.97644531 -0.88320313 1.98804688 0 2 C0 1.34 0 0.68 0 0 Z " fill="#CD2D0C" transform="translate(411,200)"/>
<path d="M0 0 C0.66 0 1.32 0 2 0 C2.33 0.66 2.66 1.32 3 2 C3.66 2 4.32 2 5 2 C4.938125 3.093125 4.87625 4.18625 4.8125 5.3125 C4.8125 13.18312624 7.83420966 20.6974818 10.37890625 28.0546875 C11 30 11 30 11.5625 33 C11.706875 33.66 11.85125 34.32 12 35 C12.66 35.33 13.32 35.66 14 36 C14 36.66 14 37.32 14 38 C14.66 38.33 15.32 38.66 16 39 C16.103125 39.825 16.20625 40.65 16.3125 41.5 C20.18092671 61.19380868 43.37034696 82.6546499 59.125 93.25 C61.07453078 94.51368477 63.03355537 95.76279954 65 97 C65.60497314 97.39695068 66.20994629 97.79390137 66.83325195 98.20288086 C93.72645596 115.596545 128.10441459 119.40576118 159.03125 113.00390625 C179.97049395 107.9620116 199.36697656 97.8434768 215 83 C219.75 84.875 219.75 84.875 222 86 C222 86.99 222 87.98 222 89 C222.52851562 89.24363281 223.05703125 89.48726562 223.6015625 89.73828125 C226.04725692 91.02485991 228.32099373 92.49237508 230.62060547 94.02172852 C238.13474449 99.01477246 245.84422159 103.14521719 254 107 C254 107.66 254 108.32 254 109 C249.51692632 108.38751176 245.87297478 106.62416416 241.9375 104.5 C241.28281738 104.14905273 240.62813477 103.79810547 239.95361328 103.43652344 C233.49483823 99.87879003 227.7480811 95.61930384 222 91 C220.59621094 89.87851562 220.59621094 89.87851562 219.1640625 88.734375 C218.09285156 87.87585938 218.09285156 87.87585938 217 87 C213.4957114 88.56382973 210.75139426 90.68569756 207.75 93.0625 C180.48459958 114.03786387 146.90160234 122.1207066 112.94921875 117.78515625 C98.81113553 115.69382269 85.80872525 111.24337865 73 105 C72.01644531 104.52820313 71.03289062 104.05640625 70.01953125 103.5703125 C58.40009774 97.6348443 48.45569382 88.88262147 39 80 C38.41089844 79.47535156 37.82179688 78.95070313 37.21484375 78.41015625 C20.60938183 62.98238667 10.80251175 41.20173712 4 20 C3.34 20 2.68 20 2 20 C0.875 14.375 0.875 14.375 2 11 C1.98031561 8.74042945 1.98031561 8.74042945 1.6875 6.375 C1.56955078 5.18003906 1.56955078 5.18003906 1.44921875 3.9609375 C1.30097656 3.31382812 1.15273438 2.66671875 1 2 C0.34 1.67 -0.32 1.34 -1 1 C-0.67 0.67 -0.34 0.34 0 0 Z M3 15 C4 18 4 18 4 18 Z " fill="#CD2F10" transform="translate(296,682)"/>
<path d="M0 0 C0.495 0.99 0.495 0.99 1 2 C0.10486592 4.48816931 -0.85534913 6.84363083 -1.9375 9.25 C-2.40760498 10.31287231 -2.40760498 10.31287231 -2.88720703 11.3972168 C-5.67874662 17.56925446 -8.93240422 23.3923924 -12.3984375 29.20703125 C-14.09248991 31.94815045 -14.09248991 31.94815045 -15 35 C-16.64507109 36.68798598 -18.31550956 38.35134979 -20 40 C-21.25424331 41.49399598 -22.50791422 42.98867607 -23.73852539 44.50219727 C-42.43940426 67.42396416 -71.18404282 86.98038779 -101.29394531 90.24902344 C-105.21728791 90.46451343 -109.08926025 90.35492428 -113 90 C-113 89.67 -113 89.34 -113 89 C-112.32646484 88.87995605 -111.65292969 88.75991211 -110.95898438 88.63623047 C-96.26591727 85.97455182 -82.12481746 83.25171473 -68.76171875 76.3203125 C-66 75 -66 75 -63 75 C-63 74.34 -63 73.68 -63 73 C-62.37996094 72.70609375 -61.75992188 72.4121875 -61.12109375 72.109375 C-54.90160336 68.95889078 -49.54846127 65.29873028 -44.125 60.9375 C-43.4952124 60.4312207 -42.8654248 59.92494141 -42.21655273 59.40332031 C-36.85053308 55.01105712 -32.06725009 50.16592664 -27.375 45.0625 C-26.61960937 44.24910156 -25.86421875 43.43570313 -25.0859375 42.59765625 C-22.89549157 39.86985374 -21.54072591 37.12826946 -20 34 C-19.00540529 32.99462377 -18.00502503 31.99494959 -17 31 C-15.63092526 28.78755274 -14.32737127 26.58250554 -13.0625 24.3125 C-12.70841064 23.68327637 -12.35432129 23.05405273 -11.98950195 22.40576172 C-8.73858405 16.59589737 -5.62529247 10.84779966 -3.375 4.5625 C-2 1 -2 1 0 0 Z " fill="#CE2F10" transform="translate(719,709)"/>
<path d="M0 0 C4.26901848 0.53362731 8.29221039 1.3252437 12.46484375 2.39453125 C25.55786387 5.52152373 38.51610342 7.12890915 52 7 C45.84072101 10.55343019 39.62679506 10.06855176 32.8125 9.375 C31.51421265 9.24557007 31.51421265 9.24557007 30.18969727 9.11352539 C19.85708804 7.94550757 9.85359498 5.28453166 0 2 C0 1.34 0 0.68 0 0 Z " fill="#CE2B0E" transform="translate(552,791)"/>
<path d="M0 0 C0.66 0 1.32 0 2 0 C2.31137262 5.0349372 2.61426986 10.07028714 2.90942383 15.10620117 C3.01095198 16.81825397 3.11476938 18.53017264 3.22094727 20.24194336 C3.37341923 22.70654879 3.51757328 25.17152385 3.66015625 27.63671875 C3.70906509 28.39836838 3.75797394 29.16001801 3.80836487 29.94474792 C4.02349534 33.80778057 3.98923869 37.24737978 3 41 C2.67 41 2.34 41 2 41 C1.87625 40.030625 1.7525 39.06125 1.625 38.0625 C1.41875 37.051875 1.2125 36.04125 1 35 C0.34 34.67 -0.32 34.34 -1 34 C-0.67 33.34 -0.34 32.68 0 32 C0.08639869 29.59161322 0.11567764 27.21266119 0.09765625 24.8046875 C0.09553383 23.74352219 0.09553383 23.74352219 0.09336853 22.66091919 C0.087766 20.39890331 0.07521318 18.13698602 0.0625 15.875 C0.05748532 14.34244935 0.05292236 12.80989714 0.04882812 11.27734375 C0.03779577 7.51819112 0.02052952 3.75911228 0 0 Z " fill="#E03C19" transform="translate(196,544)"/>
<path d="M0 0 C2.27788249 3.70395178 2.64819209 7.57985278 3.125 11.8125 C3.21136719 12.49892578 3.29773438 13.18535156 3.38671875 13.89257812 C3.91053421 18.28680779 4.02215264 22.56947223 4 27 C4.309375 28.0828125 4.309375 28.0828125 4.625 29.1875 C5.1387749 31.67074537 4.17958843 32.82541523 3 35 C0.88856209 23.25384541 -0.18751491 11.93844957 0 0 Z " fill="#DE401C" transform="translate(186,369)"/>
<path d="M0 0 C1.9507829 2.92617435 2.71513462 5.02044581 3.625 8.375 C3.88539063 9.31085938 4.14578125 10.24671875 4.4140625 11.2109375 C4.97925133 13.90123635 5.10954217 16.26144571 5 19 C4.34 19.33 3.68 19.66 3 20 C1.09579269 13.19925959 -0.40850553 7.08076251 0 0 Z " fill="#DF3C17" transform="translate(825,330)"/>
<path d="M0 0 C0 0.33 0 0.66 0 1 C-4.62 1 -9.24 1 -14 1 C-14 1.66 -14 2.32 -14 3 C-21.92 3.495 -21.92 3.495 -30 4 C-30 3.67 -30 3.34 -30 3 C-19.75430906 0.31050613 -10.51936424 -0.36886082 0 0 Z " fill="#CF3717" transform="translate(614,200)"/>
<path d="M0 0 C1.5711696 2.44467184 2.07595875 3.55888177 1.57421875 6.47265625 C1.28160156 7.32730469 0.98898438 8.18195312 0.6875 9.0625 C0.40261719 9.91972656 0.11773437 10.77695312 -0.17578125 11.66015625 C-0.44777344 12.43230469 -0.71976563 13.20445312 -1 14 C-1.33 14.99 -1.66 15.98 -2 17 C-2.66 17 -3.32 17 -4 17 C-4.33 17.66 -4.66 18.32 -5 19 C-3.83795007 12.45150687 -2.26616615 6.25461856 0 0 Z " fill="#DF411C" transform="translate(204,509)"/>
<path d="M0 0 C6.27 0.33 12.54 0.66 19 1 C14.74087527 3.83941649 10.9984397 3.40297498 6 3 C2.375 2 2.375 2 0 1 C0 0.67 0 0.34 0 0 Z " fill="#CF2509" transform="translate(405,797)"/>
<path d="M0 0 C0.66 0 1.32 0 2 0 C1.54775239 5.91492272 0.8417395 11.35199888 -1 17 C-1.66 15.68 -2.32 14.36 -3 13 C-2.34 13 -1.68 13 -1 13 C-1.20625 12.34 -1.4125 11.68 -1.625 11 C-2.13703763 6.90369892 -1.14033701 3.95764021 0 0 Z " fill="#DF3A16" transform="translate(828,396)"/>
<path d="M0 0 C0 3.67034745 -1.0752892 5.0999431 -3 8.1875 C-3.556875 9.08855469 -4.11375 9.98960937 -4.6875 10.91796875 C-5.120625 11.60503906 -5.55375 12.29210937 -6 13 C-6.93616694 10.47518613 -7.17818983 9.40525028 -6.07421875 6.89453125 C-5.61660156 6.20746094 -5.15898438 5.52039063 -4.6875 4.8125 C-4.23761719 4.11769531 -3.78773438 3.42289063 -3.32421875 2.70703125 C-2 1 -2 1 0 0 Z " fill="#DD3A16" transform="translate(812,614)"/>
<path d="M0 0 C0.66 0.66 1.32 1.32 2 2 C1.71267364 6.45355865 1.4056198 10.15100832 -1 14 C-2.33500455 8.65998179 -1.512545 5.16044765 0 0 Z " fill="#D23111" transform="translate(723,687)"/>
<path d="M0 0 C2.91227269 3.28804981 4.49701212 5.59885603 5 10 C3.68 9.67 2.36 9.34 1 9 C1 8.01 1 7.02 1 6 C0.37400383 4.31763529 -0.28752268 2.6476038 -1 1 C-0.67 0.67 -0.34 0.34 0 0 Z " fill="#DF3D17" transform="translate(208,445)"/>
<path d="M0 0 C0.33 0.99 0.66 1.98 1 3 C0 4 0 4 -3.37890625 4.09765625 C-4.77347077 4.09098369 -6.16801743 4.07902532 -7.5625 4.0625 C-8.27341797 4.05798828 -8.98433594 4.05347656 -9.71679688 4.04882812 C-11.47790013 4.03700864 -13.23896036 4.01907263 -15 4 C-15 3.67 -15 3.34 -15 3 C-11.04 3 -7.08 3 -3 3 C-3 2.34 -3 1.68 -3 1 C-2.01 0.67 -1.02 0.34 0 0 Z " fill="#D94D27" transform="translate(323,239)"/>
<path d="M0 0 C0.33 0 0.66 0 1 0 C1.10251672 5.12583611 1.03590199 9.94997778 0 15 C-0.33 15 -0.66 15 -1 15 C-2.18609365 9.3067505 -1.66251802 5.57432514 0 0 Z " fill="#E03A16" transform="translate(825,567)"/>
<path d="M0 0 C0.66 0 1.32 0 2 0 C2.99 2.97 3.98 5.94 5 9 C2 8 2 8 0.8125 6.1875 C0 4 0 4 0 0 Z " fill="#E03B17" transform="translate(820,320)"/>
<path d="M0 0 C-3.01490557 1.00496852 -5.04181692 1.10335303 -8.1875 1.0625 C-9.53908203 1.04896484 -9.53908203 1.04896484 -10.91796875 1.03515625 C-11.60503906 1.02355469 -12.29210937 1.01195312 -13 1 C-13 0.67 -13 0.34 -13 0 C-11.58800422 -0.39222105 -10.17007236 -0.76311059 -8.75 -1.125 C-7.96109375 -1.33382812 -7.1721875 -1.54265625 -6.359375 -1.7578125 C-3.5796929 -2.04314411 -2.34112451 -1.44977894 0 0 Z " fill="#CE1D03" transform="translate(619,798)"/>
<path d="M0 0 C0.99 0.33 1.98 0.66 3 1 C-0.465 3.97 -0.465 3.97 -4 7 C-3.04065919 3.16263678 -2.76390737 2.40339772 0 0 Z " fill="#CD3719" transform="translate(689,757)"/>
<path d="M0 0 C0.33 0 0.66 0 1 0 C2.12029814 5.48946087 1.79217969 8.83430559 0 14 C-0.33 14 -0.66 14 -1 14 C-1.08333357 9.1666528 -0.95261487 4.76307437 0 0 Z " fill="#DB4721" transform="translate(198,530)"/>
<path d="M0 0 C0.66 0 1.32 0 2 0 C1.42647107 3.87132028 -0.48704352 6.08172796 -3 9 C-2.44271087 5.65626525 -1.64826111 2.96687001 0 0 Z " fill="#E13B15" transform="translate(811,441)"/>
<path d="M0 0 C1.9375 0.75 1.9375 0.75 4 2 C4.875 4 4.875 4 5 6 C4.34 6.66 3.68 7.32 3 8 C0 2.25 0 2.25 0 0 Z " fill="#DE3A15" transform="translate(196,425)"/>
<path d="M0 0 C2.76223278 2.76223278 2.57856291 5.20706617 3 9 C2.34 9 1.68 9 1 9 C-1.09230769 4.56923077 -1.09230769 4.56923077 -0.625 1.6875 C-0.41875 1.130625 -0.2125 0.57375 0 0 Z " fill="#DD3E18" transform="translate(194,415)"/>
<path d="M0 0 C0.33 0 0.66 0 1 0 C1.33 3.3 1.66 6.6 2 10 C1.01 10 0.02 10 -1 10 C-0.67 6.7 -0.34 3.4 0 0 Z " fill="#DE431E" transform="translate(830,350)"/>
<path d="M0 0 C3.0625 1.25 3.0625 1.25 6 3 C6.33 3.99 6.66 4.98 7 6 C3.54074837 4.7508258 0.85306797 3.32472205 -2 1 C-1.34 0.67 -0.68 0.34 0 0 Z " fill="#DF3A15" transform="translate(262,668)"/>
<path d="M0 0 C0.33 0 0.66 0 1 0 C1.33 2.97 1.66 5.94 2 9 C1.34 9 0.68 9 0 9 C-0.33 9.99 -0.66 10.98 -1 12 C-0.67 8.04 -0.34 4.08 0 0 Z " fill="#DD4821" transform="translate(188,351)"/>
<path d="M0 0 C0.66 1.32 1.32 2.64 2 4 C1.01 3.67 0.02 3.34 -1 3 C-0.67 2.01 -0.34 1.02 0 0 Z " fill="#C84625" transform="translate(307,723)"/>
<path d="M0 0 C0.33 1.32 0.66 2.64 1 4 C0.34 3.34 -0.32 2.68 -1 2 C-0.67 1.34 -0.34 0.68 0 0 Z " fill="#D65029" transform="translate(194,563)"/>
<path d="M0 0 C1.65 0 3.3 0 5 0 C5 0.33 5 0.66 5 1 C3.35 1 1.7 1 0 1 C0 0.67 0 0.34 0 0 Z " fill="#D54F29" transform="translate(309,240)"/>
<path d="M0 0 C1 4 1 4 1 4 Z " fill="#D7532C" transform="translate(186,395)"/>
<path d="M0 0 C3 1 3 1 3 1 Z " fill="#C94625" transform="translate(370,789)"/>
<path d="" fill="#D8532E" transform="translate(0,0)"/>
<path d="M0 0 C3 1 3 1 3 1 Z " fill="#CB4A26" transform="translate(584,200)"/>
<path d="M0 0 C3 1 3 1 3 1 Z " fill="#C94823" transform="translate(421,200)"/>
<path d="M0 0 C3 1 3 1 3 1 Z " fill="#C94925" transform="translate(416,200)"/>
<path d="M0 0 C2 1 2 1 2 1 Z " fill="#CC4A26" transform="translate(622,799)"/>
<path d="" fill="#C84523" transform="translate(0,0)"/>
<path d="" fill="#C94524" transform="translate(0,0)"/>
<path d="M0 0 C2 1 2 1 2 1 Z " fill="#C94927" transform="translate(304,720)"/>
<path d="" fill="#D4522E" transform="translate(0,0)"/>
<path d="" fill="#D7512C" transform="translate(0,0)"/>
<path d="" fill="#DA552E" transform="translate(0,0)"/>
<path d="" fill="#DC532B" transform="translate(0,0)"/>
<path d="M0 0 C2 1 2 1 2 1 Z " fill="#D9512B" transform="translate(185,392)"/>
<path d="M0 0 C2 1 2 1 2 1 Z " fill="#D5512C" transform="translate(256,256)"/>
<path d="M0 0 C2 1 2 1 2 1 Z " fill="#D2502B" transform="translate(750,248)"/>
<path d="M0 0 C2 1 2 1 2 1 Z " fill="#D44C26" transform="translate(317,240)"/>
<path d="M0 0 C2 1 2 1 2 1 Z " fill="#CA4824" transform="translate(369,208)"/>
<path d="" fill="#82614E" transform="translate(0,0)"/>
<path d="" fill="#736D63" transform="translate(0,0)"/>
<path d="" fill="#C94B28" transform="translate(0,0)"/>
<path d="" fill="#CE4A26" transform="translate(0,0)"/>
<path d="" fill="#CD4824" transform="translate(0,0)"/>
<path d="" fill="#CF4521" transform="translate(0,0)"/>
<path d="" fill="#CD4724" transform="translate(0,0)"/>
<path d="" fill="#CE4422" transform="translate(0,0)"/>
<path d="" fill="#C94622" transform="translate(0,0)"/>
<path d="" fill="#CD4320" transform="translate(0,0)"/>
<path d="" fill="#CC4725" transform="translate(0,0)"/>
<path d="" fill="#CE4A25" transform="translate(0,0)"/>
<path d="" fill="#CC4723" transform="translate(0,0)"/>
<path d="" fill="#CD4426" transform="translate(0,0)"/>
<path d="" fill="#C94924" transform="translate(0,0)"/>
<path d="" fill="#CA4622" transform="translate(0,0)"/>
<path d="" fill="#C84626" transform="translate(0,0)"/>
<path d="" fill="#C94925" transform="translate(0,0)"/>
<path d="" fill="#C94625" transform="translate(0,0)"/>
<path d="" fill="#CB4621" transform="translate(0,0)"/>
<path d="" fill="#C74524" transform="translate(0,0)"/>
<path d="" fill="#CA4822" transform="translate(0,0)"/>
<path d="" fill="#C8401F" transform="translate(0,0)"/>
<path d="" fill="#C74A28" transform="translate(0,0)"/>
<path d="" fill="#C94623" transform="translate(0,0)"/>
<path d="" fill="#CA4726" transform="translate(0,0)"/>
<path d="" fill="#C64826" transform="translate(0,0)"/>
<path d="" fill="#C74928" transform="translate(0,0)"/>
<path d="" fill="#C94626" transform="translate(0,0)"/>
<path d="" fill="#C84629" transform="translate(0,0)"/>
<path d="" fill="#CA4625" transform="translate(0,0)"/>
<path d="" fill="#CA4725" transform="translate(0,0)"/>
<path d="" fill="#CC4926" transform="translate(0,0)"/>
<path d="" fill="#CF4925" transform="translate(0,0)"/>
<path d="" fill="#CD4B29" transform="translate(0,0)"/>
<path d="" fill="#D34827" transform="translate(0,0)"/>
<path d="" fill="#D2512B" transform="translate(0,0)"/>
<path d="" fill="#D54C26" transform="translate(0,0)"/>
<path d="" fill="#D6532C" transform="translate(0,0)"/>
<path d="" fill="#D8532D" transform="translate(0,0)"/>
<path d="" fill="#D7522D" transform="translate(0,0)"/>
<path d="" fill="#D94F29" transform="translate(0,0)"/>
<path d="" fill="#D8542E" transform="translate(0,0)"/>
<path d="" fill="#D8532F" transform="translate(0,0)"/>
<path d="" fill="#DB532E" transform="translate(0,0)"/>
<path d="" fill="#D8542E" transform="translate(0,0)"/>
<path d="" fill="#D54D28" transform="translate(0,0)"/>
<path d="" fill="#D74E2A" transform="translate(0,0)"/>
<path d="" fill="#D7532C" transform="translate(0,0)"/>
<path d="" fill="#D45330" transform="translate(0,0)"/>
<path d="" fill="#DA542F" transform="translate(0,0)"/>
<path d="" fill="#D64E29" transform="translate(0,0)"/>
<path d="" fill="#D6502A" transform="translate(0,0)"/>
<path d="" fill="#D7502A" transform="translate(0,0)"/>
<path d="" fill="#D64B2A" transform="translate(0,0)"/>
<path d="" fill="#D4562F" transform="translate(0,0)"/>
<path d="" fill="#D5522D" transform="translate(0,0)"/>
<path d="" fill="#D64F2A" transform="translate(0,0)"/>
<path d="" fill="#D7522D" transform="translate(0,0)"/>
<path d="" fill="#D7532C" transform="translate(0,0)"/>
<path d="" fill="#D7522B" transform="translate(0,0)"/>
<path d="" fill="#D9542D" transform="translate(0,0)"/>
<path d="" fill="#D7522C" transform="translate(0,0)"/>
<path d="" fill="#D8522B" transform="translate(0,0)"/>
<path d="" fill="#D9542F" transform="translate(0,0)"/>
<path d="" fill="#DB4D29" transform="translate(0,0)"/>
<path d="" fill="#D9552F" transform="translate(0,0)"/>
<path d="" fill="#D9522B" transform="translate(0,0)"/>
<path d="" fill="#D9552C" transform="translate(0,0)"/>
<path d="" fill="#DA532C" transform="translate(0,0)"/>
<path d="" fill="#DF5229" transform="translate(0,0)"/>
<path d="" fill="#DC542B" transform="translate(0,0)"/>
<path d="" fill="#DE522B" transform="translate(0,0)"/>
<path d="" fill="#E04F28" transform="translate(0,0)"/>
<path d="" fill="#DD512C" transform="translate(0,0)"/>
<path d="" fill="#D7512D" transform="translate(0,0)"/>
<path d="" fill="#DD5126" transform="translate(0,0)"/>
<path d="" fill="#DB4F29" transform="translate(0,0)"/>
<path d="" fill="#DE512A" transform="translate(0,0)"/>
<path d="" fill="#D9542D" transform="translate(0,0)"/>
<path d="" fill="#D9522C" transform="translate(0,0)"/>
<path d="" fill="#DA522A" transform="translate(0,0)"/>
<path d="" fill="#DB512B" transform="translate(0,0)"/>
<path d="" fill="#D84F29" transform="translate(0,0)"/>
<path d="" fill="#D6502A" transform="translate(0,0)"/>
<path d="" fill="#D8552E" transform="translate(0,0)"/>
<path d="" fill="#DB532D" transform="translate(0,0)"/>
<path d="" fill="#D8512A" transform="translate(0,0)"/>
<path d="" fill="#D55630" transform="translate(0,0)"/>
<path d="" fill="#D8542D" transform="translate(0,0)"/>
<path d="" fill="#D7522C" transform="translate(0,0)"/>
<path d="" fill="#DA552E" transform="translate(0,0)"/>
<path d="" fill="#D9572E" transform="translate(0,0)"/>
<path d="" fill="#D65631" transform="translate(0,0)"/>
<path d="" fill="#D85530" transform="translate(0,0)"/>
<path d="" fill="#D9562D" transform="translate(0,0)"/>
<path d="" fill="#DA532E" transform="translate(0,0)"/>
<path d="" fill="#DA532C" transform="translate(0,0)"/>
<path d="" fill="#D8542D" transform="translate(0,0)"/>
<path d="" fill="#D5532F" transform="translate(0,0)"/>
<path d="" fill="#D95531" transform="translate(0,0)"/>
<path d="" fill="#D8542E" transform="translate(0,0)"/>
<path d="" fill="#D75431" transform="translate(0,0)"/>
<path d="" fill="#D8542B" transform="translate(0,0)"/>
<path d="" fill="#D6542F" transform="translate(0,0)"/>
<path d="" fill="#D75631" transform="translate(0,0)"/>
<path d="" fill="#D8532B" transform="translate(0,0)"/>
<path d="" fill="#DA532B" transform="translate(0,0)"/>
<path d="" fill="#D35330" transform="translate(0,0)"/>
<path d="" fill="#D95129" transform="translate(0,0)"/>
<path d="" fill="#9C715B" transform="translate(0,0)"/>
<path d="" fill="#D45230" transform="translate(0,0)"/>
<path d="" fill="#DB532C" transform="translate(0,0)"/>
<path d="" fill="#D7532E" transform="translate(0,0)"/>
<path d="" fill="#D7522B" transform="translate(0,0)"/>
<path d="" fill="#D94D28" transform="translate(0,0)"/>
<path d="" fill="#D4512F" transform="translate(0,0)"/>
<path d="" fill="#DA542C" transform="translate(0,0)"/>
<path d="" fill="#D94F2A" transform="translate(0,0)"/>
<path d="" fill="#D8522B" transform="translate(0,0)"/>
<path d="" fill="#9F6D55" transform="translate(0,0)"/>
<path d="" fill="#CE4220" transform="translate(0,0)"/>
<path d="" fill="#DB5129" transform="translate(0,0)"/>
<path d="" fill="#DC5029" transform="translate(0,0)"/>
<path d="" fill="#CF4321" transform="translate(0,0)"/>
<path d="" fill="#DA4E26" transform="translate(0,0)"/>
<path d="" fill="#D85229" transform="translate(0,0)"/>
<path d="" fill="#D94D27" transform="translate(0,0)"/>
<path d="" fill="#D9532B" transform="translate(0,0)"/>
<path d="" fill="#DA4F29" transform="translate(0,0)"/>
<path d="" fill="#D95129" transform="translate(0,0)"/>
<path d="" fill="#CD441F" transform="translate(0,0)"/>
<path d="" fill="#D54E28" transform="translate(0,0)"/>
<path d="" fill="#CE4623" transform="translate(0,0)"/>
<path d="" fill="#D65128" transform="translate(0,0)"/>
<path d="" fill="#D24B24" transform="translate(0,0)"/>
<path d="" fill="#D54C25" transform="translate(0,0)"/>
<path d="" fill="#D24C25" transform="translate(0,0)"/>
<path d="" fill="#CB4421" transform="translate(0,0)"/>
<path d="" fill="#CE4523" transform="translate(0,0)"/>
<path d="" fill="#CE4722" transform="translate(0,0)"/>
<path d="" fill="#CF4C2A" transform="translate(0,0)"/>
<path d="" fill="#CE421F" transform="translate(0,0)"/>
<path d="" fill="#CF4B28" transform="translate(0,0)"/>
<path d="" fill="#D04A26" transform="translate(0,0)"/>
<path d="" fill="#CB4620" transform="translate(0,0)"/>
<path d="" fill="#CD4925" transform="translate(0,0)"/>
<path d="" fill="#CC4624" transform="translate(0,0)"/>
<path d="" fill="#CB4B26" transform="translate(0,0)"/>
<path d="" fill="#CC4723" transform="translate(0,0)"/>
<path d="" fill="#CE4823" transform="translate(0,0)"/>
<path d="" fill="#CC441F" transform="translate(0,0)"/>
<path d="" fill="#CD4623" transform="translate(0,0)"/>
<path d="" fill="#CC4523" transform="translate(0,0)"/>
<path d="" fill="#CC4824" transform="translate(0,0)"/>
<path d="" fill="#CA4826" transform="translate(0,0)"/>
<path d="" fill="#CD4925" transform="translate(0,0)"/>
<path d="" fill="#CB4623" transform="translate(0,0)"/>
<path d="" fill="#CB4B23" transform="translate(0,0)"/>
<path d="" fill="#C94922" transform="translate(0,0)"/>
<path d="" fill="#CB4923" transform="translate(0,0)"/>
<path d="" fill="#CB4C28" transform="translate(0,0)"/>
<path d="" fill="#CB4C28" transform="translate(0,0)"/>
<path d="" fill="#9B6952" transform="translate(0,0)"/>
<path d="" fill="#7A766E" transform="translate(0,0)"/>
<path d="" fill="#936F5A" transform="translate(0,0)"/>
</svg>
